<svg xmlns="http://www.w3.org/2000/svg" width="900" height="780" viewBox="0 0 900 780">
  <!-- LEON / NITA STYLE CONSISTENCY COMPARISON (AUTHENTIC BRAWL STARS REDESIGN) -->
  <rect width="900" height="780" fill="#181a20"/>

  <text x="450" y="42" fill="#ffd166" font-family="system-ui, -apple-system, sans-serif" font-size="24" font-weight="bold" text-anchor="middle">LEON ↔ NITA STYLE CONSISTENCY CHECK</text>
  <text x="450" y="66" fill="#a0aab8" font-family="system-ui, -apple-system, sans-serif" font-size="13" text-anchor="middle">Same Universe • 1:1 Scale Parity • Identical Outline Weight • Paper-Cutout Art Style</text>

  <!-- Divider Line -->
  <line x1="450" y1="90" x2="450" y2="640" stroke="#2a2f3a" stroke-width="2" stroke-dasharray="6 6"/>

  <!-- Ground Shadows -->
  <ellipse cx="235" cy="590" rx="90" ry="14" fill="#101216"/>
  <ellipse cx="665" cy="590" rx="90" ry="14" fill="#101216"/>

  <!-- ==================== LEFT: LEON (APPROVED) ==================== -->
  <g transform="translate(235, 345) scale(2.3)">
    <!-- Feet -->
    <g transform="translate(-24, 70)">
      <polygon points="-5,-4 15,-4 17,10 -7,10" fill="#c47d48" stroke="#1e1e2c" stroke-width="3.2" stroke-linejoin="round"/>
      <line x1="-7" y1="10" x2="17" y2="10" stroke="#1e1e2c" stroke-width="3.2" stroke-linecap="round"/>
    </g>
    <g transform="translate(24, 70)">
      <polygon points="-15,-4 5,-4 7,10 -17,10" fill="#c47d48" stroke="#1e1e2c" stroke-width="3.2" stroke-linejoin="round"/>
      <line x1="-17" y1="10" x2="7" y2="10" stroke="#1e1e2c" stroke-width="3.2" stroke-linecap="round"/>
    </g>
    <!-- Legs -->
    <rect x="-21" y="55" width="16" height="15" fill="#c47d48" stroke="#1e1e2c" stroke-width="3.2"/>
    <rect x="5" y="55" width="16" height="15" fill="#c47d48" stroke="#1e1e2c" stroke-width="3.2"/>
    <!-- Shorts -->
    <path d="M-24,30 L-2,30 L-1,56 L-26,56 Z" fill="#1f3160" stroke="#1e1e2c" stroke-width="3.2" stroke-linejoin="round"/>
    <path d="M2,30 L24,30 L26,56 L1,56 Z" fill="#1f3160" stroke="#1e1e2c" stroke-width="3.2" stroke-linejoin="round"/>
    <!-- Torso -->
    <g transform="translate(-38, -25)">
      <path d="M12,4 C8,4 6,14 6,28 C6,46 12,54 20,54 L56,54 C64,54 70,46 70,28 C70,14 68,4 64,4 Z"
            fill="#38b000" stroke="#1e1e2c" stroke-width="3.5" stroke-linejoin="round"/>
      <line x1="38" y1="4" x2="38" y2="54" stroke="#1e1e2c" stroke-width="2.5"/>
      <path d="M22,32 L54,32 L58,54 L18,54 Z" fill="#1e90ff" stroke="#1e1e2c" stroke-width="3.2" stroke-linejoin="round"/>
      <rect x="35" y="16" width="6" height="12" rx="2" fill="#ced4da" stroke="#1e1e2c" stroke-width="2.0"/>
    </g>
    <!-- Arms & Cyan Mittens -->
    <g transform="translate(-36, -24)">
      <path d="M15,4 C8,4 4,9 4,16 L5,30 C5,34 9,36 15,36 C21,36 25,34 25,30 L26,16 C26,9 22,4 15,4 Z"
            fill="#38b000" stroke="#1e1e2c" stroke-width="3.2" stroke-linejoin="round"/>
      <g transform="translate(2, 28)">
        <circle cx="12" cy="12" r="8" fill="#1e90ff" stroke="#1e1e2c" stroke-width="2.8"/>
      </g>
    </g>
    <g transform="translate(14, -24)">
      <path d="M15,4 C8,4 4,9 4,16 L5,30 C5,34 9,36 15,36 C21,36 25,34 25,30 L26,16 C26,9 22,4 15,4 Z"
            fill="#38b000" stroke="#1e1e2c" stroke-width="3.2" stroke-linejoin="round"/>
      <g transform="translate(2, 28)">
        <circle cx="12" cy="12" r="8" fill="#1e90ff" stroke="#1e1e2c" stroke-width="2.8"/>
      </g>
    </g>
    <!-- Head -->
    <g transform="translate(-64, -108)">
      <circle cx="24" cy="38" r="16" fill="#38b000" stroke="#1e1e2c" stroke-width="3.5"/>
      <circle cx="104" cy="38" r="16" fill="#38b000" stroke="#1e1e2c" stroke-width="3.5"/>
      <path d="M64,6 C30,6 12,28 12,64 C12,94 32,114 64,114 C96,114 116,94 116,64 C116,28 98,6 64,6 Z"
            fill="#38b000" stroke="#1e1e2c" stroke-width="3.5" stroke-linejoin="round"/>
      <path d="M54,6 C58,6 59,32 58,52 L70,52 C69,32 70,6 74,6 Z" fill="#ffd166" stroke="#1e1e2c" stroke-width="2.5"/>
      <!-- Button Eyes -->
      <circle cx="28" cy="40" r="14" fill="#1e90ff" stroke="#1e1e2c" stroke-width="3.2"/>
      <circle cx="28" cy="40" r="10" fill="#0077b6"/>
      <line x1="22" y1="34" x2="34" y2="46" stroke="#1e1e2c" stroke-width="3.0" stroke-linecap="round"/>
      <line x1="34" y1="34" x2="22" y2="46" stroke="#1e1e2c" stroke-width="3.0" stroke-linecap="round"/>
      <circle cx="100" cy="40" r="14" fill="#1e90ff" stroke="#1e1e2c" stroke-width="3.2"/>
      <circle cx="100" cy="40" r="10" fill="#0077b6"/>
      <line x1="94" y1="34" x2="106" y2="46" stroke="#1e1e2c" stroke-width="3.0" stroke-linecap="round"/>
      <line x1="106" y1="34" x2="94" y2="46" stroke="#1e1e2c" stroke-width="3.0" stroke-linecap="round"/>
      <!-- Face Cavity -->
      <ellipse cx="64" cy="74" rx="36" ry="32" fill="#1a2512" stroke="#1e1e2c" stroke-width="3.5"/>
      <!-- Face Base & Shadow -->
      <g transform="translate(26, 44)">
        <ellipse cx="38" cy="34" rx="34" ry="30" fill="#c47d48" stroke="#1e1e2c" stroke-width="3.2"/>
        <path d="M4,34 C4,12 18,4 38,4 C58,4 72,12 72,34 C64,24 50,18 38,18 C26,18 12,24 4,34 Z" fill="#1a2512"/>
        <!-- Lollipop -->
        <line x1="38" y1="34" x2="52" y2="46" stroke="#ffffff" stroke-width="2.6" stroke-linecap="round"/>
        <circle cx="40" cy="36" r="4.0" fill="#e63946" stroke="#1e1e2c" stroke-width="1.8"/>
        <!-- Mouth line -->
        <path d="M30,36 C34,39 42,39 46,36" stroke="#1e1e2c" stroke-width="2.5" fill="none" stroke-linecap="round"/>
      </g>
    </g>
  </g>
  <text x="235" y="630" fill="#a0aab8" font-family="system-ui, -apple-system, sans-serif" font-size="15" font-weight="bold" text-anchor="middle">LEON (APPROVED MASTER)</text>

  <!-- ==================== RIGHT: NITA (REDESIGNED) ==================== -->
  <g transform="translate(665, 345) scale(2.3)">
    <!-- Feet -->
    <g transform="translate(-24, 70)">
      <path d="M4,4 L22,4 C25,4 27,9 27,13 L27,17 L2,17 C2,9 2,4 4,4 Z"
            fill="#b87349" stroke="#1e1e2c" stroke-width="3.2" stroke-linejoin="round"/>
    </g>
    <g transform="translate(6, 70)">
      <path d="M26,4 L8,4 C5,4 3,9 3,13 L3,17 L28,17 C28,9 28,4 26,4 Z"
            fill="#b87349" stroke="#1e1e2c" stroke-width="3.2" stroke-linejoin="round"/>
    </g>
    <!-- Maroon Leggings -->
    <rect x="-21" y="48" width="16" height="22" fill="#7a2828" stroke="#1e1e2c" stroke-width="3.2"/>
    <rect x="5" y="48" width="16" height="22" fill="#7a2828" stroke="#1e1e2c" stroke-width="3.2"/>
    <!-- Wrap Skirt -->
    <g transform="translate(-38, 24)">
      <path d="M10,2 L66,2 L71,28 L5,28 Z" fill="#48cae4" stroke="#1e1e2c" stroke-width="3.2" stroke-linejoin="round"/>
      <path d="M12,2 L64,2 L60,18 L38,27 L16,18 Z" fill="#06d6a0" stroke="#1e1e2c" stroke-width="3.2" stroke-linejoin="round"/>
      <line x1="38" y1="2" x2="38" y2="26" stroke="#1e1e2c" stroke-width="2.2" stroke-linecap="round"/>
    </g>
    <!-- Torso -->
    <g transform="translate(-38, -25)">
      <path d="M14,4 C10,4 8,14 8,28 C8,46 14,54 20,54 L56,54 C62,54 68,46 68,28 C68,14 66,4 62,4 Z"
            fill="#06d6a0" stroke="#1e1e2c" stroke-width="3.5" stroke-linejoin="round"/>
      <path d="M29,4 C33,14 43,14 47,4 Z" fill="#b87349" stroke="#1e1e2c" stroke-width="2.4"/>
      <!-- Cyan Necklace & Bear Paw Pendant -->
      <path d="M31,8 C34,22 42,22 45,8" stroke="#00b4d8" stroke-width="2.5" fill="none"/>
      <circle cx="32" cy="19" r="2.5" fill="#48cae4" stroke="#1e1e2c" stroke-width="1.8"/>
      <circle cx="38" cy="17" r="2.8" fill="#48cae4" stroke="#1e1e2c" stroke-width="1.8"/>
      <circle cx="44" cy="19" r="2.5" fill="#48cae4" stroke="#1e1e2c" stroke-width="1.8"/>
      <ellipse cx="38" cy="27" rx="8" ry="7" fill="#48cae4" stroke="#1e1e2c" stroke-width="2.5"/>
      <ellipse cx="38" cy="27" rx="4.5" ry="3.5" fill="#00b4d8"/>
      <!-- Belt -->
      <rect x="14" y="44" width="48" height="10" rx="2" fill="#4a2e1b" stroke="#1e1e2c" stroke-width="3.0"/>
      <rect x="35" y="43" width="6" height="12" rx="1.5" fill="#6a4328" stroke="#1e1e2c" stroke-width="2.0"/>
    </g>
    <!-- Bare Arms & COMPACT Tan Hands (Identical in scale to Leon) -->
    <g transform="translate(-36, -24)">
      <path d="M15,4 C9,4 5,9 5,16 L6,30 C6,34 10,36 15,36 C20,36 24,34 24,30 L25,16 C25,9 21,4 15,4 Z"
            fill="#b87349" stroke="#1e1e2c" stroke-width="3.2" stroke-linejoin="round"/>
      <g transform="translate(3, 28)">
        <path d="M12,3 C6,3 3,7 3,13 C3,19 7,22 12,22 C17,22 21,19 21,13 C21,10 19,7 16,5 C16,7 14,9 12,9 C10.5,9 10.5,6 12,3 Z"
              fill="#b87349" stroke="#1e1e2c" stroke-width="2.8" stroke-linejoin="round"/>
        <line x1="8" y1="14" x2="16" y2="14" stroke="#874724" stroke-width="1.6" stroke-linecap="round"/>
      </g>
    </g>
    <g transform="translate(14, -24)">
      <path d="M15,4 C9,4 5,9 5,16 L6,30 C6,34 10,36 15,36 C20,36 24,34 24,30 L25,16 C25,9 21,4 15,4 Z"
            fill="#b87349" stroke="#1e1e2c" stroke-width="3.2" stroke-linejoin="round"/>
      <g transform="translate(3, 28)">
        <path d="M12,3 C18,3 21,7 21,13 C21,19 17,22 12,22 C7,22 3,19 3,13 C3,10 5,7 8,5 C8,7 10,9 12,9 C13.5,9 13.5,6 12,3 Z"
              fill="#b87349" stroke="#1e1e2c" stroke-width="2.8" stroke-linejoin="round"/>
        <line x1="8" y1="14" x2="16" y2="14" stroke="#874724" stroke-width="1.6" stroke-linecap="round"/>
      </g>
    </g>
    <!-- Bear Hood & Face -->
    <g transform="translate(-64, -108)">
      <circle cx="26" cy="34" r="16" fill="#d93848" stroke="#1e1e2c" stroke-width="3.5"/>
      <circle cx="27" cy="35" r="9" fill="#a82332"/>
      <circle cx="102" cy="34" r="16" fill="#d93848" stroke="#1e1e2c" stroke-width="3.5"/>
      <circle cx="101" cy="35" r="9" fill="#a82332"/>
      <path d="M64,6 C30,6 12,28 12,64 C12,94 32,114 64,114 C96,114 116,94 116,64 C116,28 98,6 64,6 Z"
            fill="#d93848" stroke="#1e1e2c" stroke-width="3.5" stroke-linejoin="round"/>
      <!-- Stitches -->
      <line x1="64" y1="8" x2="64" y2="34" stroke="#a82332" stroke-width="2.2"/>
      <line x1="58" y1="12" x2="70" y2="12" stroke="#1e1e2c" stroke-width="3.0" stroke-linecap="round"/>
      <line x1="57" y1="20" x2="71" y2="20" stroke="#1e1e2c" stroke-width="3.0" stroke-linecap="round"/>
      <line x1="58" y1="28" x2="70" y2="28" stroke="#1e1e2c" stroke-width="3.0" stroke-linecap="round"/>
      <!-- 'X' Stitches -->
      <line x1="26" y1="24" x2="42" y2="40" stroke="#1e1e2c" stroke-width="4.2" stroke-linecap="round"/>
      <line x1="42" y1="24" x2="26" y2="40" stroke="#1e1e2c" stroke-width="4.2" stroke-linecap="round"/>
      <line x1="86" y1="24" x2="102" y2="40" stroke="#1e1e2c" stroke-width="4.2" stroke-linecap="round"/>
      <line x1="102" y1="24" x2="86" y2="40" stroke="#1e1e2c" stroke-width="4.2" stroke-linecap="round"/>
      <!-- Snout & Nose -->
      <ellipse cx="64" cy="48" rx="25" ry="15" fill="#eb5e6d" stroke="#1e1e2c" stroke-width="3.2"/>
      <path d="M55,43 C55,38 60,36 64,36 C68,36 73,38 73,43 C73,49 68,52 64,52 C60,52 55,49 55,43 Z" fill="#1e1e2c"/>
      <circle cx="61" cy="46" r="1.3" fill="#3a3f47"/>
      <circle cx="67" cy="46" r="1.3" fill="#3a3f47"/>
      <!-- Face Cavity -->
      <ellipse cx="64" cy="78" rx="36" ry="30" fill="#6e1f28" stroke="#1e1e2c" stroke-width="3.5"/>
      <!-- Fangs -->
      <path d="M47,56 L54,56 L50.5,66 Z" fill="#ffffff" stroke="#1e1e2c" stroke-width="2.4" stroke-linejoin="round"/>
      <path d="M74,56 L81,56 L77.5,66 Z" fill="#ffffff" stroke="#1e1e2c" stroke-width="2.4" stroke-linejoin="round"/>
      <!-- Face Inside -->
      <g transform="translate(26, 48)">
        <ellipse cx="38" cy="34" rx="34" ry="30" fill="#b87349" stroke="#1e1e2c" stroke-width="3.2"/>
        <path d="M10,24 C14,12 24,6 38,6 C52,6 62,12 66,24 C60,16 50,14 44,18 C40,13 36,13 32,18 C26,14 16,16 10,24 Z"
              fill="#3a2015" stroke="#1e1e2c" stroke-width="2.2" stroke-linejoin="round"/>
        <!-- War Paint Mask -->
        <path d="M6,32 C6,23 18,21 38,21 C58,21 70,23 70,32 C70,41 58,43 38,43 C18,43 6,41 6,32 Z" fill="#4a2818"/>
        <!-- Fierce Slanted Eyes -->
        <g transform="translate(10, 22)">
          <path d="M4,15 C8,4 18,3 24,6 C22,17 12,21 4,15 Z" fill="#ffffff" stroke="#1e1e2c" stroke-width="2.6" stroke-linejoin="round"/>
          <ellipse cx="14" cy="11" rx="4.5" ry="5.5" fill="#1e1e2c"/>
          <circle cx="12.5" cy="9.2" r="1.5" fill="#ffffff"/>
        </g>
        <path d="M14,19 C18,14 26,13 31,16" stroke="#1e1e2c" stroke-width="3.2" stroke-linecap="round" fill="none"/>
        <g transform="translate(42, 22)">
          <path d="M24,15 C20,4 10,3 4,6 C6,17 16,21 24,15 Z" fill="#ffffff" stroke="#1e1e2c" stroke-width="2.6" stroke-linejoin="round"/>
          <ellipse cx="12" cy="11" rx="4.5" ry="5.5" fill="#1e1e2c"/>
          <circle cx="10.5" cy="9.2" r="1.5" fill="#ffffff"/>
        </g>
        <path d="M45,16 C50,13 58,14 62,19" stroke="#1e1e2c" stroke-width="3.2" stroke-linecap="round" fill="none"/>
        <!-- Smirk -->
        <g transform="translate(26, 47)">
          <path d="M2,4 C8,12 16,11 20,5 C19,13 10,14 2,4 Z" fill="#1e1e2c"/>
          <polygon points="7,5 11,5 9,11" fill="#ffffff" stroke="#1e1e2c" stroke-width="1.2"/>
        </g>
      </g>
      <!-- Shoulder Paws -->
      <g>
        <path d="M12,82 C6,88 8,98 16,102 C24,106 30,100 30,92 C30,84 20,80 12,82 Z" fill="#d93848" stroke="#1e1e2c" stroke-width="3.0" stroke-linejoin="round"/>
        <polygon points="12,94 7,98 13,99" fill="#1e1e2c"/>
        <polygon points="17,99 14,104 20,103" fill="#1e1e2c"/>
        <polygon points="23,101 23,106 27,103" fill="#1e1e2c"/>
        <path d="M116,82 C122,88 120,98 112,102 C104,106 98,100 98,92 C98,84 108,80 116,82 Z" fill="#d93848" stroke="#1e1e2c" stroke-width="3.0" stroke-linejoin="round"/>
        <polygon points="116,94 121,98 115,99" fill="#1e1e2c"/>
        <polygon points="111,99 114,104 108,103" fill="#1e1e2c"/>
        <polygon points="105,101 105,106 101,103" fill="#1e1e2c"/>
      </g>
    </g>
  </g>
  <text x="665" y="630" fill="#a0aab8" font-family="system-ui, -apple-system, sans-serif" font-size="15" font-weight="bold" text-anchor="middle">NITA (REDESIGNED MASTER)</text>

  <!-- Style Checklist -->
  <g font-family="system-ui, -apple-system, sans-serif" font-size="12" fill="#8896a6">
    <text x="60" y="680">☑ 1:1 Height &amp; Scale Parity: Both stand at ~152px chibi paper-cutout height</text>
    <text x="60" y="705">☑ Unified Stroke Hierarchy: #1e1e2c bold outlines (3.5 / 3.0 / 2.5) with round joins</text>
    <text x="60" y="730">☑ Authentic Face Language: Slanted fierce almond eyes + dark chocolate war paint mask</text>
    <text x="470" y="680">☑ Compact Cartoon Hands: Bare caramel skin (~24px), NO oversized mittens</text>
    <text x="470" y="705">☑ Authentic Bear Hood: 'X' stitch eyes, snout pad, nostrils, white fangs &amp; paw scarf</text>
    <text x="470" y="730">☑ Authentic Outfit: Emerald tunic, cyan bear paw medallion &amp; asymmetrical wrap skirt</text>
  </g>
</svg>